<!DOCTYPE svg PUBLIC "-//W3C//DTD SVG 1.1//EN" "http://www.w3.org/Graphics/SVG/1.1/DTD/svg11.dtd">
<!-- Uploaded to: SVG Repo, www.svgrepo.com, Transformed by: SVG Repo Mixer Tools -->
<svg fill="#000000" width="64px" height="64px" viewBox="0 0 256.00 256.00" id="Flat" xmlns="http://www.w3.org/2000/svg" stroke="#000000" stroke-width="0.00256">
<g id="SVGRepo_bgCarrier" stroke-width="0"/>
<g id="SVGRepo_tracerCarrier" stroke-linecap="round" stroke-linejoin="round"/>
<g id="SVGRepo_iconCarrier"> <path d="M216,68H137.65625l41.17187-41.17188a3.99957,3.99957,0,1,0-5.65624-5.65624L128,66.34277,82.82812,21.17188a3.99957,3.99957,0,0,0-5.65624,5.65624L118.34375,68H40A12.01312,12.01312,0,0,0,28,80V200a12.01312,12.01312,0,0,0,12,12H216a12.01312,12.01312,0,0,0,12-12V80A12.01312,12.01312,0,0,0,216,68Zm4,132a4.004,4.004,0,0,1-4,4H40a4.004,4.004,0,0,1-4-4V80a4.004,4.004,0,0,1,4-4H216a4.004,4.004,0,0,1,4,4Z"/> </g>
</svg>